<svg width="133" height="31" viewBox="0 0 133 31" fill="none" xmlns="http://www.w3.org/2000/svg">
<path d="M18.8583 12.7813L13.6917 15.6073L8.52499 12.7813V18.0833V12.7813L13.3344 10.1694C13.4482 10.1075 13.577 10.075 13.7082 10.075C13.8393 10.075 13.9681 10.1075 14.0819 10.1694L18.8583 12.7813Z" fill="white"/>
<path d="M18.8583 18.0772L13.7081 20.9249H13.7026L13.6697 20.9039L12.4892 20.2576L8.52499 18.0824V12.7875L13.6917 15.4154L18.8583 12.7875V18.0772Z" fill="white"/>
<path d="M26.8577 7.37859L24.289 5.90442C24.2043 5.84383 24.1039 5.80878 23.9997 5.80349C23.8955 5.7982 23.7919 5.82288 23.7015 5.87458C23.6111 5.92628 23.5376 6.0028 23.49 6.09494C23.4423 6.18709 23.4224 6.29094 23.4327 6.39402V20.4848C23.4303 20.668 23.3788 20.8472 23.2836 21.0042C23.1884 21.1611 23.0528 21.2901 22.8908 21.3779L14.22 26.3599C14.0625 26.4496 13.8841 26.4968 13.7025 26.4968C13.5209 26.4968 13.3425 26.4496 13.185 26.3599L4.51421 21.3779C4.35222 21.2901 4.21666 21.1611 4.12142 21.0042C4.02619 20.8472 3.97473 20.668 3.97229 20.4848V10.5314C3.97473 10.3482 4.02619 10.1689 4.12142 10.012C4.21666 9.85503 4.35222 9.72605 4.51421 9.63828L13.185 4.66159C13.3425 4.57192 13.5209 4.52474 13.7025 4.52474C13.8841 4.52474 14.0625 4.57192 14.22 4.66159L17.6504 6.62536C17.7674 6.69242 17.9001 6.72772 18.0352 6.72772C18.1703 6.72771 18.303 6.6924 18.42 6.62533C18.537 6.55826 18.6341 6.4618 18.7017 6.34564C18.7692 6.22948 18.8047 6.09772 18.8047 5.9636V3.46719C18.8088 3.24986 18.7542 3.03541 18.6465 2.84616C18.5388 2.65691 18.382 2.49979 18.1923 2.39115L14.2255 0.136845C14.0679 0.0471758 13.8895 0 13.7079 0C13.5263 0 13.3479 0.0471758 13.1904 0.136845L0.541922 7.37859C0.379929 7.46637 0.244363 7.59534 0.149133 7.75228C0.0539023 7.90923 0.00243387 8.0885 0 8.2717V22.7337C0.0035397 22.9166 0.0554726 23.0955 0.150588 23.2522C0.245704 23.409 0.380659 23.5382 0.541922 23.6268L13.1741 30.8631C13.3317 30.9528 13.5101 31 13.6917 31C13.8733 31 14.0517 30.9528 14.2092 30.8631L26.8414 23.6268C27.0027 23.5382 27.1376 23.409 27.2327 23.2522C27.3279 23.0955 27.3798 22.9166 27.3833 22.7337V8.2717C27.3825 8.0901 27.3335 7.91192 27.2412 7.75512C27.1489 7.59832 27.0166 7.46845 26.8577 7.37859Z" fill="white"/>
<path d="M51.4247 3.91956H53.8695C54.0696 3.91956 54.2616 3.99987 54.4031 4.14284C54.5446 4.2858 54.6241 4.47971 54.6241 4.68189V24.8247C54.6227 25.0246 54.5432 25.2157 54.4028 25.3565C54.2624 25.4973 54.0726 25.5763 53.8748 25.5763H51.4194C51.2216 25.5763 51.0317 25.4973 50.8914 25.3565C50.751 25.2157 50.6714 25.0246 50.67 24.8247V23.751C49.5079 25.2614 47.8532 26.0148 45.7061 26.0112C44.7091 26.021 43.7217 25.8147 42.8104 25.4063C41.8991 24.9979 41.0851 24.3968 40.4233 23.6436C39.0128 22.0463 38.2333 19.9807 38.2333 17.8402C38.2333 15.6998 39.0128 13.6342 40.4233 12.0368C41.0851 11.2836 41.8991 10.6826 42.8104 10.2742C43.7217 9.86575 44.7091 9.65948 45.7061 9.66929C47.8532 9.66929 49.5079 10.4227 50.67 11.9294V4.68189C50.67 4.58178 50.6895 4.48265 50.7275 4.39016C50.7654 4.29767 50.821 4.21363 50.8911 4.14284C50.9611 4.07205 51.0443 4.0159 51.1359 3.97759C51.2274 3.93928 51.3256 3.91956 51.4247 3.91956ZM43.3942 20.9862C43.793 21.3898 44.2694 21.7066 44.7941 21.9171C45.3188 22.1276 45.8806 22.2274 46.4448 22.2102C47.006 22.228 47.5647 22.1284 48.086 21.9177C48.6073 21.7071 49.0799 21.39 49.4742 20.9862C50.2439 20.125 50.67 19.0059 50.67 17.8456C50.67 16.6853 50.2439 15.5662 49.4742 14.705C49.0799 14.3012 48.6073 13.9841 48.086 13.7735C47.5647 13.5628 47.006 13.4633 46.4448 13.481C45.8806 13.4638 45.3188 13.5636 44.7941 13.7741C44.2694 13.9846 43.793 14.3014 43.3942 14.705C42.6143 15.5612 42.1815 16.6822 42.1815 17.8456C42.1815 19.0091 42.6143 20.13 43.3942 20.9862Z" fill="white"/>
<path d="M61.3806 8.17322C60.7267 8.16348 60.1023 7.9009 59.6393 7.44102C59.1764 6.98115 58.9113 6.36005 58.9 5.70907C58.8992 5.38301 58.9643 5.06012 59.0914 4.7596C59.2185 4.45909 59.405 4.1871 59.6399 3.9598C59.8619 3.72125 60.1313 3.53117 60.4309 3.40159C60.7306 3.27202 61.054 3.20576 61.3806 3.20702C61.7124 3.20389 62.0413 3.26916 62.3465 3.39871C62.6517 3.52826 62.9266 3.7193 63.1541 3.9598C63.3882 4.18737 63.5738 4.45953 63.7 4.76007C63.8262 5.0606 63.8903 5.38335 63.8885 5.70907C63.8909 6.03248 63.827 6.35298 63.7007 6.65096C63.5745 6.94895 63.3884 7.21815 63.1541 7.4421C62.924 7.67764 62.648 7.86397 62.3431 7.98968C62.0381 8.11539 61.7107 8.17785 61.3806 8.17322ZM59.3733 25.3464V10.3612C59.3733 10.2779 59.4066 10.198 59.4657 10.1391C59.5249 10.0801 59.6051 10.0471 59.6888 10.0471H63.1051C63.1888 10.0471 63.269 10.0801 63.3282 10.1391C63.3874 10.198 63.4206 10.2779 63.4206 10.3612V25.3464C63.4206 25.3874 63.4124 25.428 63.3965 25.4658C63.3806 25.5036 63.3573 25.5379 63.3279 25.5667C63.2985 25.5954 63.2637 25.618 63.2254 25.6332C63.1872 25.6484 63.1463 25.6559 63.1051 25.6551H59.6671C59.5877 25.651 59.513 25.6166 59.4583 25.5592C59.4036 25.5017 59.3732 25.4256 59.3733 25.3464Z" fill="white"/>
<path d="M71.4522 14.4682C71.4522 14.8772 71.7303 15.2163 72.2866 15.4746C72.9372 15.7659 73.6148 15.9947 74.3098 16.1581C75.1225 16.3572 75.922 16.6052 76.7039 16.9008C77.5071 17.2078 78.2078 17.7296 78.7272 18.4077C79.3024 19.1668 79.5969 20.0975 79.5616 21.0447C79.5966 21.7575 79.4497 22.4676 79.1343 23.1099C78.8189 23.7521 78.3451 24.3059 77.7565 24.7204C76.4287 25.6132 74.8466 26.0639 73.2409 26.0067C70.1324 26.0067 67.9764 24.8622 66.773 22.5731C66.7364 22.5039 66.7291 22.4231 66.7526 22.3485C66.7761 22.2739 66.8285 22.2115 66.8984 22.1749L69.8543 20.5281C69.893 20.5084 69.9354 20.4968 69.9789 20.494C70.0224 20.4913 70.066 20.4974 70.107 20.5121C70.1479 20.5267 70.1854 20.5496 70.217 20.5792C70.2486 20.6088 70.2736 20.6445 70.2906 20.6841C70.7977 21.8143 71.7848 22.3794 73.2409 22.3794C74.697 22.3794 75.4224 21.9327 75.4224 21.0447C75.4224 20.6303 75.1442 20.2913 74.588 20.0329C73.9368 19.7401 73.2595 19.5077 72.5647 19.3387C71.7519 19.1249 70.9525 18.8644 70.1706 18.5584C69.3764 18.2537 68.6783 17.7467 68.1473 17.0891C67.5754 16.3696 67.2799 15.4736 67.3129 14.5597C67.2845 13.8657 67.4252 13.1751 67.7231 12.5458C68.0211 11.9165 68.4676 11.3669 69.0253 10.9432C70.2515 10.0379 71.7541 9.57272 73.2846 9.62465C74.5032 9.6091 75.7053 9.90381 76.7748 10.4803C77.6727 10.9633 78.4367 11.6563 78.9999 12.4985C79.0336 12.5521 79.056 12.6119 79.0654 12.6743C79.0749 12.7366 79.0714 12.8003 79.055 12.8613C79.0387 12.9222 79.0099 12.9793 78.9704 13.0289C78.9309 13.0785 78.8815 13.1196 78.8254 13.1497L76.164 14.5866C76.072 14.6354 75.9647 14.6481 75.8636 14.6222C75.7624 14.5962 75.675 14.5336 75.6187 14.4467C75.382 14.0487 75.0392 13.7224 74.6277 13.5032C74.2162 13.284 73.7516 13.1804 73.2846 13.2035C72.8247 13.1849 72.37 13.305 71.9812 13.5479C71.8202 13.6434 71.6868 13.7783 71.5942 13.9395C71.5015 14.1007 71.4526 14.2829 71.4522 14.4682Z" fill="white"/>
<path d="M104.106 9.65338C105.126 9.6435 106.136 9.8499 107.068 10.2587C108 10.6675 108.832 11.2692 109.51 12.0232C110.951 13.6221 111.747 15.6898 111.747 17.8323C111.747 19.9748 110.951 22.0424 109.51 23.6413C108.832 24.3954 108 24.9971 107.068 25.4059C106.136 25.8147 105.126 26.0211 104.106 26.0112C101.934 26.0112 100.244 25.2571 99.0347 23.7488V24.8182C99.0347 25.0263 98.9511 25.2258 98.8024 25.373C98.6538 25.5201 98.4521 25.6028 98.2419 25.6028H95.7928C95.5825 25.6028 95.3809 25.5201 95.2322 25.373C95.0835 25.2258 95 25.0263 95 24.8182V4.77399C95 4.5483 95.0902 4.33179 95.251 4.17171C95.4117 4.01162 95.6299 3.92098 95.858 3.91956H98.1767C98.4047 3.92098 98.623 4.01162 98.7837 4.17171C98.9444 4.33179 99.0347 4.5483 99.0347 4.77399V11.9211C100.226 10.4129 101.916 9.65696 104.106 9.65338ZM100.256 20.9759C101.096 21.7621 102.207 22.2002 103.363 22.2002C104.518 22.2002 105.63 21.7621 106.469 20.9759C107.265 20.1189 107.708 18.9969 107.708 17.8323C107.708 16.6677 107.265 15.5456 106.469 14.6886C105.63 13.9025 104.518 13.4644 103.363 13.4644C102.207 13.4644 101.096 13.9025 100.256 14.6886C99.47 15.5507 99.0347 16.6708 99.0347 17.8323C99.0347 18.9937 99.47 20.1139 100.256 20.9759Z" fill="white"/>
<path d="M117.432 8.15598C116.777 8.14755 116.152 7.885 115.689 7.42428C115.226 6.96357 114.963 6.34113 114.954 5.68964C114.952 5.36363 115.016 5.04059 115.143 4.73979C115.269 4.43899 115.455 4.16658 115.689 3.93881C115.914 3.7045 116.184 3.51864 116.484 3.39276C116.784 3.26688 117.107 3.20366 117.432 3.20704C117.764 3.20358 118.093 3.26876 118.399 3.39845C118.705 3.52814 118.98 3.71952 119.207 3.96049C119.442 4.18826 119.627 4.46067 119.754 4.76147C119.88 5.06227 119.944 5.3853 119.942 5.71132C119.948 6.3348 119.705 6.93509 119.267 7.38084C119.029 7.62567 118.744 7.82042 118.428 7.95357C118.113 8.08671 117.774 8.15554 117.432 8.15598ZM115.422 25.3553V10.3296C115.424 10.25 115.457 10.1742 115.514 10.1185C115.571 10.0627 115.647 10.0315 115.727 10.0315H119.175C119.254 10.0315 119.33 10.0629 119.386 10.1188C119.443 10.1747 119.474 10.2505 119.474 10.3296V25.3553C119.474 25.4343 119.443 25.5102 119.386 25.5661C119.33 25.622 119.254 25.6534 119.175 25.6534H115.727C115.685 25.658 115.643 25.6537 115.603 25.6408C115.562 25.6279 115.525 25.6066 115.494 25.5785C115.463 25.5503 115.438 25.5159 115.421 25.4774C115.404 25.4389 115.395 25.3973 115.395 25.3553H115.422Z" fill="white"/>
<path d="M132.576 13.8732H129.346V20.329C129.327 20.5423 129.351 20.7575 129.418 20.9605C129.485 21.1634 129.593 21.3497 129.735 21.5072C130.061 21.7788 130.468 21.927 130.887 21.9269C131.213 21.9269 131.581 21.9269 132.002 21.9269C132.102 21.9232 132.201 21.9402 132.294 21.9767C132.387 22.0132 132.472 22.0685 132.544 22.1393C132.615 22.2101 132.672 22.2949 132.711 22.3888C132.75 22.4826 132.77 22.5835 132.77 22.6854V24.8374C132.768 25.0306 132.695 25.2158 132.565 25.3564C132.436 25.4969 132.259 25.5824 132.071 25.5959C129.753 25.7896 128.091 25.5081 127.085 24.7513C125.98 23.9282 125.433 22.4487 125.433 20.3183V13.8624H122.993C122.94 13.8624 122.889 13.8409 122.852 13.8025C122.814 13.7642 122.793 13.7122 122.793 13.658V10.2471C122.793 10.1929 122.814 10.1409 122.852 10.1026C122.889 10.0642 122.94 10.0427 122.993 10.0427H125.433V6.48121C125.433 6.27432 125.514 6.07591 125.657 5.92961C125.8 5.78332 125.994 5.70113 126.196 5.70113H128.578C128.679 5.70042 128.779 5.72007 128.872 5.75895C128.965 5.79784 129.05 5.85519 129.121 5.9277C129.192 6.00021 129.249 6.08644 129.288 6.18144C129.326 6.27644 129.346 6.37831 129.346 6.48121V10.0427H132.576C132.627 10.0441 132.675 10.0655 132.712 10.1025C132.748 10.1395 132.769 10.1894 132.77 10.2418V13.6903C132.765 13.7397 132.742 13.7856 132.707 13.8193C132.671 13.853 132.624 13.8721 132.576 13.8732Z" fill="white"/>
<path d="M91.7824 13.8732H88.5532V20.329C88.5336 20.5423 88.5582 20.7575 88.6253 20.9605C88.6923 21.1634 88.8004 21.3497 88.9424 21.5072C89.2675 21.7788 89.6744 21.927 90.0942 21.9269C90.4202 21.9269 90.7884 21.9269 91.2091 21.9269C91.3087 21.9232 91.408 21.9402 91.501 21.9767C91.594 22.0132 91.6789 22.0685 91.7506 22.1393C91.8223 22.2101 91.8793 22.2949 91.9182 22.3888C91.9571 22.4826 91.9771 22.5835 91.977 22.6854V24.8374C91.9748 25.0306 91.9017 25.2158 91.7721 25.3564C91.6425 25.4969 91.4659 25.5824 91.2775 25.5959C88.9599 25.7896 87.2979 25.5081 86.2916 24.7513C85.1872 23.9282 84.6402 22.4487 84.6402 20.3183V13.8624H82.1999C82.1469 13.8624 82.096 13.8409 82.0585 13.8025C82.0211 13.7642 82 13.7122 82 13.658V10.2471C82 10.1929 82.0211 10.1409 82.0585 10.1026C82.096 10.0642 82.1469 10.0427 82.1999 10.0427H84.6402V6.48121C84.6402 6.27432 84.7205 6.07591 84.8636 5.92961C85.0066 5.78332 85.2006 5.70113 85.4028 5.70113H87.7853C87.8859 5.70042 87.9856 5.72007 88.0787 5.75895C88.1719 5.79784 88.2566 5.85519 88.3279 5.9277C88.3993 6.00021 88.456 6.08644 88.4946 6.18144C88.5333 6.27644 88.5532 6.37831 88.5532 6.48121V10.0427H91.7824C91.8336 10.0441 91.8823 10.0655 91.9185 10.1025C91.9547 10.1395 91.9757 10.1894 91.977 10.2418V13.6903C91.9719 13.7397 91.9493 13.7856 91.9135 13.8193C91.8777 13.853 91.8311 13.8721 91.7824 13.8732Z" fill="white"/>
</svg>
